<svg xmlns="http://www.w3.org/2000/svg" xmlns:osb="http://www.openswatchbook.org/uri/2009/osb" xmlns:svg="http://www.w3.org/2000/svg" xmlns:xlink="http://www.w3.org/1999/xlink" id="svg2" width="50" height="200" version="1.1"><defs id="defs4"><linearGradient id="linearGradient6722" x1="1.017" x2="32.924" y1="22.712" y2="22.712" gradientUnits="userSpaceOnUse" xlink:href="#linearGradient6718"/><linearGradient id="linearGradient6672" x1="15" x2="25" y1="15" y2="15" gradientUnits="userSpaceOnUse" xlink:href="#linearGradient6668"/><linearGradient id="linearGradient6646" x1="14" x2="45" y1="17" y2="17" gradientUnits="userSpaceOnUse" xlink:href="#linearGradient6642"/><linearGradient id="linearGradient6642" osb:paint="solid"><stop id="stop6644" offset="0" style="stop-color:#0eabab;stop-opacity:.81176472"/></linearGradient><linearGradient id="linearGradient6668" osb:paint="solid"><stop id="stop6670" offset="0" style="stop-color:#08b2b9;stop-opacity:.79607844"/></linearGradient><linearGradient id="linearGradient6708" osb:paint="solid"><stop id="stop6710" offset="0" style="stop-color:#faf6fd;stop-opacity:1"/></linearGradient><linearGradient id="linearGradient6718" osb:paint="solid"><stop id="stop6720" offset="0" style="stop-color:#fcfcf9;stop-opacity:1"/></linearGradient><linearGradient id="linearGradient3849" x1="-123.118" x2="-73.903" y1="-517.513" y2="-517.513" gradientUnits="userSpaceOnUse" xlink:href="#linearGradient3845"/><linearGradient id="linearGradient3843" x1="310.272" x2="425.927" y1="2222.143" y2="2222.143" gradientTransform="translate(-101.49186,-11.843444)" gradientUnits="userSpaceOnUse" xlink:href="#linearGradient3839"/><linearGradient id="linearGradient3836" x1="-856.609" x2="-464.67" y1="803.865" y2="803.865" gradientTransform="matrix(0.28856995,0,0,0.47472763,457.24801,1828.6822)" gradientUnits="userSpaceOnUse" xlink:href="#linearGradient3874"/><linearGradient id="linearGradient3833" x1="-468.054" x2="-488.945" y1="1419.169" y2="1436.22" gradientTransform="matrix(0.00452839,0.16125115,-0.15702835,-0.00431192,480.26372,2306.068)" gradientUnits="userSpaceOnUse" xlink:href="#linearGradient3856"/><linearGradient id="linearGradient3831" x1="-354.733" x2="-358.452" y1="334.099" y2="333.717" gradientTransform="matrix(-0.10783369,0.11097273,-0.13055758,-0.13379515,257.43844,2305.4602)" gradientUnits="userSpaceOnUse" xlink:href="#linearGradient3761-4"/><linearGradient id="linearGradient3828" x1="-468.054" x2="-488.945" y1="1419.169" y2="1436.22" gradientTransform="matrix(-0.00452838,-0.16125113,0.15702835,0.00431191,54.363388,2112.0477)" gradientUnits="userSpaceOnUse" xlink:href="#linearGradient3856"/><linearGradient id="linearGradient3826" x1="-354.733" x2="-358.452" y1="334.099" y2="333.717" gradientTransform="matrix(0.10783369,-0.11097273,0.13055757,0.13379514,277.1888,2112.6555)" gradientUnits="userSpaceOnUse" xlink:href="#linearGradient3761-4"/><linearGradient id="linearGradient4165" x1="-468.054" x2="-488.945" y1="1419.169" y2="1436.22" gradientTransform="matrix(-0.00452838,-0.16125113,0.15702835,0.00431191,188.12446,2102.779)" gradientUnits="userSpaceOnUse" xlink:href="#linearGradient3856"/><linearGradient id="linearGradient4163" x1="-354.733" x2="-358.452" y1="334.099" y2="333.717" gradientTransform="matrix(0.10783369,-0.11097273,0.13055757,0.13379514,410.94987,2103.3868)" gradientUnits="userSpaceOnUse" xlink:href="#linearGradient3761-4"/><linearGradient id="linearGradient4161" x1="-468.054" x2="-488.945" y1="1419.169" y2="1436.22" gradientTransform="matrix(0.00452839,0.16125115,-0.15702835,-0.00431192,614.02479,2296.7993)" gradientUnits="userSpaceOnUse" xlink:href="#linearGradient3856"/><linearGradient id="linearGradient4159" x1="-354.733" x2="-358.452" y1="334.099" y2="333.717" gradientTransform="matrix(-0.10783369,0.11097273,-0.13055758,-0.13379515,391.19951,2296.1915)" gradientUnits="userSpaceOnUse" xlink:href="#linearGradient3761-4"/><linearGradient id="linearGradient4157" x1="-856.609" x2="-464.67" y1="803.865" y2="803.865" gradientTransform="matrix(0.28856995,0,0,0.47472763,591.00908,1819.4135)" gradientUnits="userSpaceOnUse" xlink:href="#linearGradient3874"/><linearGradient id="linearGradient4149" x1="-468.054" x2="-488.945" y1="1419.169" y2="1436.22" gradientTransform="matrix(-0.00452838,-0.16125113,0.15702835,0.00431191,188.12446,2102.779)" gradientUnits="userSpaceOnUse" xlink:href="#linearGradient3856"/><linearGradient id="linearGradient4147" x1="-354.733" x2="-358.452" y1="334.099" y2="333.717" gradientTransform="matrix(0.10783369,-0.11097273,0.13055757,0.13379514,410.94987,2103.3868)" gradientUnits="userSpaceOnUse" xlink:href="#linearGradient3761-4"/><linearGradient id="linearGradient4143" x1="-856.609" x2="-464.67" y1="803.865" y2="803.865" gradientTransform="matrix(0.28856995,0,0,0.47472763,591.00908,1819.4135)" gradientUnits="userSpaceOnUse" xlink:href="#linearGradient3874"/><linearGradient id="linearGradient4140" x1="-468.054" x2="-488.945" y1="1419.169" y2="1436.22" gradientTransform="matrix(-0.00452844,-0.1612511,0.15702837,0.0043119,189.80607,2104.6326)" gradientUnits="userSpaceOnUse" xlink:href="#linearGradient3856"/><linearGradient id="linearGradient4138" x1="-279.078" x2="-358.452" y1="443.033" y2="333.717" gradientTransform="matrix(0.10783369,-0.11097273,0.13055758,0.13379513,412.63132,2105.2404)" gradientUnits="userSpaceOnUse" xlink:href="#linearGradient3761-4"/><linearGradient id="linearGradient4135" x1="-468.054" x2="-488.945" y1="1419.169" y2="1436.22" gradientTransform="matrix(0.00452839,0.16125115,-0.15702835,-0.00431192,614.02479,2296.7993)" gradientUnits="userSpaceOnUse" xlink:href="#linearGradient3856"/><linearGradient id="linearGradient4133" x1="-354.733" x2="-358.452" y1="334.099" y2="333.717" gradientTransform="matrix(-0.10783369,0.11097273,-0.13055758,-0.13379515,391.19951,2296.1915)" gradientUnits="userSpaceOnUse" xlink:href="#linearGradient3761-4"/><linearGradient id="linearGradient4130" x1="-468.054" x2="-488.945" y1="1419.169" y2="1436.22" gradientTransform="matrix(0.00194307,0.06997205,-0.06737864,-0.00187108,62.697506,348.8948)" gradientUnits="userSpaceOnUse" xlink:href="#linearGradient3856"/><linearGradient id="linearGradient4128" x1="-279.078" x2="-358.452" y1="443.033" y2="333.717" gradientTransform="matrix(-0.04626991,0.04815463,-0.05602041,-0.05805801,-32.91367,348.63106)" gradientUnits="userSpaceOnUse" xlink:href="#linearGradient3761-4"/><linearGradient id="linearGradient4126" x1="-468.054" x2="-488.945" y1="1419.169" y2="1436.22" gradientTransform="matrix(-0.00194309,-0.06997203,0.06737865,0.00187107,-119.55207,265.47382)" gradientUnits="userSpaceOnUse" xlink:href="#linearGradient3856"/><linearGradient id="linearGradient4124" x1="-279.078" x2="-358.452" y1="443.033" y2="333.717" gradientTransform="matrix(0.04626991,-0.04815463,0.05602041,0.058058,-23.940907,265.73754)" gradientUnits="userSpaceOnUse" xlink:href="#linearGradient3761-4"/><linearGradient id="linearGradient4122" x1="-856.609" x2="-464.67" y1="803.865" y2="803.865" gradientTransform="matrix(0.12382128,0,0,0.20599956,53.201094,142.00956)" gradientUnits="userSpaceOnUse" xlink:href="#linearGradient3874"/><linearGradient id="linearGradient4039" x1="-468.054" x2="-488.945" y1="1419.169" y2="1436.22" gradientTransform="matrix(0.00194307,0.06997205,-0.06737864,-0.00187108,62.697506,348.8948)" gradientUnits="userSpaceOnUse" xlink:href="#linearGradient3856"/><linearGradient id="linearGradient4037" x1="-279.078" x2="-358.452" y1="443.033" y2="333.717" gradientTransform="matrix(-0.04626991,0.04815463,-0.05602041,-0.05805801,-32.91367,348.63106)" gradientUnits="userSpaceOnUse" xlink:href="#linearGradient3761-4"/><linearGradient id="linearGradient4035" x1="-468.054" x2="-488.945" y1="1419.169" y2="1436.22" gradientTransform="matrix(-0.00194309,-0.06997203,0.06737865,0.00187107,-119.55207,265.47382)" gradientUnits="userSpaceOnUse" xlink:href="#linearGradient3856"/><linearGradient id="linearGradient4033" x1="-279.078" x2="-358.452" y1="443.033" y2="333.717" gradientTransform="matrix(0.04626991,-0.04815463,0.05602041,0.058058,-23.940907,265.73754)" gradientUnits="userSpaceOnUse" xlink:href="#linearGradient3761-4"/><linearGradient id="linearGradient4031" x1="-856.609" x2="-464.67" y1="803.865" y2="803.865" gradientTransform="matrix(0.12382128,0,0,0.20599956,53.201094,142.00956)" gradientUnits="userSpaceOnUse" xlink:href="#linearGradient3874"/><linearGradient id="linearGradient3117" x1="-468.054" x2="-488.945" y1="1419.169" y2="1436.22" gradientTransform="matrix(-0.00406297,-0.12423878,0.14088792,0.00332218,285.57713,632.73327)" gradientUnits="userSpaceOnUse" xlink:href="#linearGradient3856"/><linearGradient id="linearGradient3115" x1="-279.078" x2="-358.452" y1="443.033" y2="333.717" gradientTransform="matrix(0.09674983,-0.08550094,0.11713799,0.10308481,485.49892,633.20154)" gradientUnits="userSpaceOnUse" xlink:href="#linearGradient3761-4"/><linearGradient id="linearGradient3097" x1="-468.054" x2="-488.945" y1="1419.169" y2="1436.22" gradientTransform="matrix(-0.02858,-1.029185,0.99104023,0.02752073,-988.23089,36.863167)" gradientUnits="userSpaceOnUse" xlink:href="#linearGradient3856"/><linearGradient id="linearGradient3095" x1="-279.078" x2="-358.452" y1="443.033" y2="333.717" gradientTransform="matrix(0.68056207,-0.70828353,0.82397739,0.85394707,418.06812,40.742247)" gradientUnits="userSpaceOnUse" xlink:href="#linearGradient3761-4"/><linearGradient id="linearGradient3093" x1="-468.054" x2="-488.945" y1="1419.169" y2="1436.22" gradientTransform="matrix(0.02857998,1.0291851,-0.99104024,-0.02752074,1696.3531,1265.0123)" gradientUnits="userSpaceOnUse" xlink:href="#linearGradient3856"/><linearGradient id="linearGradient3091" x1="-279.078" x2="-358.452" y1="443.033" y2="333.717" gradientTransform="matrix(-0.68056206,0.70828351,-0.82397748,-0.85394707,290.05427,1261.1333)" gradientUnits="userSpaceOnUse" xlink:href="#linearGradient3761-4"/><linearGradient id="linearGradient3089" x1="-856.609" x2="-464.67" y1="803.865" y2="803.865" gradientUnits="userSpaceOnUse" xlink:href="#linearGradient3874"/><linearGradient id="linearGradient3087" x1="-417.142" x2="449.467" y1="476.575" y2="476.575" gradientUnits="userSpaceOnUse" xlink:href="#linearGradient3782"/><linearGradient id="linearGradient3085" x1="-417.142" x2="449.467" y1="476.575" y2="476.575" gradientUnits="userSpaceOnUse" xlink:href="#linearGradient3788"/><linearGradient id="linearGradient3075" x1="-468.054" x2="-488.945" y1="1419.169" y2="1436.22" gradientTransform="matrix(-0.02858,-1.029185,0.99104023,0.02752073,-988.23089,36.863167)" gradientUnits="userSpaceOnUse" xlink:href="#linearGradient3856"/><linearGradient id="linearGradient3073" x1="-279.078" x2="-358.452" y1="443.033" y2="333.717" gradientTransform="matrix(0.68056207,-0.70828353,0.82397739,0.85394707,418.06812,40.742247)" gradientUnits="userSpaceOnUse" xlink:href="#linearGradient3761-4"/><linearGradient id="linearGradient3071" x1="-468.054" x2="-488.945" y1="1419.169" y2="1436.22" gradientTransform="matrix(0.02857998,1.0291851,-0.99104024,-0.02752074,1696.3531,1265.0123)" gradientUnits="userSpaceOnUse" xlink:href="#linearGradient3856"/><linearGradient id="linearGradient3069" x1="-279.078" x2="-358.452" y1="443.033" y2="333.717" gradientTransform="matrix(-0.68056206,0.70828351,-0.82397748,-0.85394707,290.05427,1261.1333)" gradientUnits="userSpaceOnUse" xlink:href="#linearGradient3761-4"/><linearGradient id="linearGradient3067" x1="-856.609" x2="-464.67" y1="803.865" y2="803.865" gradientUnits="userSpaceOnUse" xlink:href="#linearGradient3874"/><linearGradient id="linearGradient3065" x1="-417.142" x2="449.467" y1="476.575" y2="476.575" gradientUnits="userSpaceOnUse" xlink:href="#linearGradient3782"/><linearGradient id="linearGradient3063" x1="-417.142" x2="449.467" y1="476.575" y2="476.575" gradientUnits="userSpaceOnUse" xlink:href="#linearGradient3788"/><linearGradient id="linearGradient3996" x1="-417.142" x2="449.467" y1="476.575" y2="476.575" gradientUnits="userSpaceOnUse" xlink:href="#linearGradient3782"/><linearGradient id="linearGradient3994" x1="-417.142" x2="449.467" y1="476.575" y2="476.575" gradientUnits="userSpaceOnUse" xlink:href="#linearGradient3788"/><linearGradient id="linearGradient3782"><stop style="stop-color:#fff;stop-opacity:1" id="stop3784" offset="0"/></linearGradient><linearGradient id="linearGradient3786" x1="-417.142" x2="449.467" y1="476.575" y2="476.575" gradientUnits="userSpaceOnUse" xlink:href="#linearGradient3782"/><linearGradient id="linearGradient3788"><stop style="stop-color:#ff4b36;stop-opacity:1" id="stop3790" offset="0"/></linearGradient><linearGradient id="linearGradient3792" x1="-417.142" x2="449.467" y1="476.575" y2="476.575" gradientUnits="userSpaceOnUse" xlink:href="#linearGradient3788"/><linearGradient id="linearGradient3874"><stop style="stop-color:#fff;stop-opacity:1" id="stop3876" offset="0"/></linearGradient><linearGradient id="linearGradient3878" x1="-856.609" x2="-464.67" y1="803.865" y2="803.865" gradientUnits="userSpaceOnUse" xlink:href="#linearGradient3874"/><linearGradient id="linearGradient3977"><stop style="stop-color:#ff0;stop-opacity:1" id="stop3979" offset="0"/></linearGradient><linearGradient id="linearGradient3890" x1="-468.054" x2="-488.945" y1="1419.169" y2="1436.22" gradientTransform="matrix(0.02857998,1.0291851,-0.99104024,-0.02752074,1696.3531,1265.0123)" gradientUnits="userSpaceOnUse" xlink:href="#linearGradient3856"/><linearGradient id="linearGradient3972"><stop style="stop-color:#fff;stop-opacity:1" id="stop3974" offset="0"/></linearGradient><linearGradient id="linearGradient3888" x1="-279.078" x2="-358.452" y1="443.033" y2="333.717" gradientTransform="matrix(-0.68056206,0.70828351,-0.82397748,-0.85394707,290.05427,1261.1333)" gradientUnits="userSpaceOnUse" xlink:href="#linearGradient3761-4"/><linearGradient id="linearGradient3856"><stop style="stop-color:#ff0;stop-opacity:1" id="stop3858" offset="0"/></linearGradient><linearGradient id="linearGradient3896" x1="-468.054" x2="-488.945" y1="1419.169" y2="1436.22" gradientTransform="matrix(-0.02858,-1.029185,0.99104023,0.02752073,-988.23089,36.863167)" gradientUnits="userSpaceOnUse" xlink:href="#linearGradient3856"/><linearGradient id="linearGradient3761-4" osb:paint="solid"><stop style="stop-color:#fff;stop-opacity:1" id="stop3763-5" offset="0"/></linearGradient><linearGradient id="linearGradient3894" x1="-279.078" x2="-358.452" y1="443.033" y2="333.717" gradientTransform="matrix(0.68056207,-0.70828353,0.82397739,0.85394707,418.06812,40.742247)" gradientUnits="userSpaceOnUse" xlink:href="#linearGradient3761-4"/><linearGradient id="linearGradient3992" osb:paint="solid"><stop id="stop3994" offset="0" style="stop-color:#000;stop-opacity:1"/></linearGradient><linearGradient id="linearGradient3839" osb:paint="solid"><stop id="stop3841" offset="0" style="stop-color:#c6c752;stop-opacity:1"/></linearGradient><linearGradient id="linearGradient3845" osb:paint="solid"><stop id="stop3847" offset="0" style="stop-color:#bbba36;stop-opacity:1"/></linearGradient><linearGradient id="linearGradient3803" x1="-9.355" x2="27.676" y1="21.679" y2="21.679" gradientUnits="userSpaceOnUse" xlink:href="#linearGradient3799"/><linearGradient id="linearGradient3032" x1="3.924" x2="38.643" y1="72.166" y2="72.166" gradientTransform="matrix(0.80589033,0,0,0.88542456,-25.15999,969.18623)" gradientUnits="userSpaceOnUse" xlink:href="#linearGradient3792-4"/><linearGradient id="linearGradient5273" x1="3.924" x2="38.643" y1="72.166" y2="72.166" gradientTransform="matrix(0.83905952,0,0,0.88542456,-25.970505,969.02933)" gradientUnits="userSpaceOnUse" xlink:href="#linearGradient3792-4"/><linearGradient id="linearGradient5250" x1="3.924" x2="38.643" y1="72.166" y2="72.166" gradientTransform="matrix(0.85112103,0,0,0.88542456,-25.913112,968.92468)" gradientUnits="userSpaceOnUse" xlink:href="#linearGradient3792-4"/><linearGradient id="linearGradient5208" x1="3.924" x2="38.643" y1="72.166" y2="72.166" gradientTransform="matrix(0.80589033,0,0,0.88542456,-1050.2357,-71.904983)" gradientUnits="userSpaceOnUse" xlink:href="#linearGradient3792-4"/><linearGradient id="linearGradient5163" x1="10.556" x2="30.172" y1="1033.794" y2="1033.794" gradientUnits="userSpaceOnUse" xlink:href="#linearGradient5159"/><linearGradient id="linearGradient5090" x1="-8.899" x2="27.22" y1="21.679" y2="21.679" gradientUnits="userSpaceOnUse" xlink:href="#linearGradient4904"/><linearGradient id="linearGradient5084" x1=".777" x2="39.456" y1="18.058" y2="18.058" gradientUnits="userSpaceOnUse" xlink:href="#linearGradient3755"/><linearGradient id="linearGradient4935" x1="10.556" x2="30.172" y1="1034.004" y2="1034.004" gradientUnits="userSpaceOnUse" xlink:href="#linearGradient4931"/><linearGradient id="linearGradient4929" x1="10.556" x2="30.172" y1="1034.004" y2="1034.004" gradientUnits="userSpaceOnUse" xlink:href="#linearGradient4925"/><linearGradient id="linearGradient3916" x1="8.336" x2="29.344" y1="1033.552" y2="1033.552" gradientUnits="userSpaceOnUse" xlink:href="#linearGradient3852"/><linearGradient id="linearGradient3914" x1="8.336" x2="29.344" y1="1033.552" y2="1033.552" gradientUnits="userSpaceOnUse" xlink:href="#linearGradient3852"/><linearGradient id="linearGradient3912" x1="8.336" x2="29.344" y1="1033.552" y2="1033.552" gradientUnits="userSpaceOnUse" xlink:href="#linearGradient3852"/><linearGradient id="linearGradient3910" x1="8.336" x2="29.344" y1="1033.552" y2="1033.552" gradientUnits="userSpaceOnUse" xlink:href="#linearGradient3852"/><linearGradient id="linearGradient3908" x1="8.336" x2="29.344" y1="1033.552" y2="1033.552" gradientUnits="userSpaceOnUse" xlink:href="#linearGradient3852"/><linearGradient id="linearGradient3906" x1="8.336" x2="29.344" y1="1033.552" y2="1033.552" gradientUnits="userSpaceOnUse" xlink:href="#linearGradient3852"/><linearGradient id="linearGradient3904" x1="8.336" x2="29.344" y1="1033.552" y2="1033.552" gradientUnits="userSpaceOnUse" xlink:href="#linearGradient3852"/><linearGradient id="linearGradient3902" x1="8.336" x2="29.344" y1="1033.552" y2="1033.552" gradientUnits="userSpaceOnUse" xlink:href="#linearGradient3852"/><linearGradient id="linearGradient3900" x1="8.336" x2="29.344" y1="1033.552" y2="1033.552" gradientUnits="userSpaceOnUse" xlink:href="#linearGradient3852"/><linearGradient id="linearGradient3874-1" x1="8.336" x2="29.344" y1="1033.552" y2="1033.552" gradientUnits="userSpaceOnUse" xlink:href="#linearGradient3852"/><linearGradient id="linearGradient3872" x1="8.336" x2="29.344" y1="1033.552" y2="1033.552" gradientUnits="userSpaceOnUse" xlink:href="#linearGradient3852"/><linearGradient id="linearGradient3870" x1="8.336" x2="29.344" y1="1033.552" y2="1033.552" gradientUnits="userSpaceOnUse" xlink:href="#linearGradient3852"/><linearGradient id="linearGradient3868" x1="8.336" x2="29.344" y1="1033.552" y2="1033.552" gradientUnits="userSpaceOnUse" xlink:href="#linearGradient3852"/><linearGradient id="linearGradient3866" x1="8.336" x2="29.344" y1="1033.552" y2="1033.552" gradientUnits="userSpaceOnUse" xlink:href="#linearGradient3852"/><linearGradient id="linearGradient3864" x1="8.336" x2="29.344" y1="1033.552" y2="1033.552" gradientUnits="userSpaceOnUse" xlink:href="#linearGradient3852"/><linearGradient id="linearGradient3862" x1="8.336" x2="29.344" y1="1033.552" y2="1033.552" gradientUnits="userSpaceOnUse" xlink:href="#linearGradient3852"/><linearGradient id="linearGradient3860" x1="8.336" x2="29.344" y1="1033.552" y2="1033.552" gradientUnits="userSpaceOnUse" xlink:href="#linearGradient3852"/><linearGradient id="linearGradient3858" x1="8.336" x2="29.344" y1="1033.552" y2="1033.552" gradientUnits="userSpaceOnUse" xlink:href="#linearGradient3852"/><linearGradient id="linearGradient3856-7" x1="8.336" x2="29.344" y1="1033.552" y2="1033.552" gradientUnits="userSpaceOnUse" xlink:href="#linearGradient3852"/><linearGradient id="linearGradient3755" osb:paint="solid"><stop id="stop3757" offset="0" style="stop-color:#ff931a;stop-opacity:.94509804"/></linearGradient><linearGradient id="linearGradient3761" osb:paint="solid"><stop id="stop3763" offset="0" style="stop-color:#cd3639;stop-opacity:1"/></linearGradient><linearGradient id="linearGradient3792-4" osb:paint="solid"><stop id="stop3794" offset="0" style="stop-color:#fcf9ff;stop-opacity:1"/></linearGradient><linearGradient id="linearGradient3852" osb:paint="solid"><stop id="stop3854" offset="0" style="stop-color:#f5f8fa;stop-opacity:1"/></linearGradient><linearGradient id="linearGradient4904" osb:paint="solid"><stop id="stop4906" offset="0" style="stop-color:#fcfafc;stop-opacity:1"/></linearGradient><linearGradient id="linearGradient4925" osb:paint="solid"><stop id="stop4927" offset="0" style="stop-color:#f4c411;stop-opacity:1"/></linearGradient><linearGradient id="linearGradient4931" osb:paint="solid"><stop id="stop4933" offset="0" style="stop-color:#462e24;stop-opacity:1"/></linearGradient><linearGradient id="linearGradient5159" osb:paint="solid"><stop id="stop5161" offset="0" style="stop-color:#fff;stop-opacity:1"/></linearGradient><linearGradient id="linearGradient3799" osb:paint="solid"><stop id="stop3801" offset="0" style="stop-color:#fe8f21;stop-opacity:1"/></linearGradient><linearGradient id="linearGradient4156" x1="14" x2="45" y1="17" y2="17" gradientUnits="userSpaceOnUse" xlink:href="#linearGradient6642"/><linearGradient id="linearGradient4158" x1="15" x2="25" y1="15" y2="15" gradientUnits="userSpaceOnUse" xlink:href="#linearGradient6668"/><linearGradient id="linearGradient4160" x1="1.017" x2="32.924" y1="22.712" y2="22.712" gradientUnits="userSpaceOnUse" xlink:href="#linearGradient6718"/><linearGradient id="linearGradient4162" x1="-856.609" x2="-464.67" y1="803.865" y2="803.865" gradientTransform="matrix(0.28856995,0,0,0.47472763,457.24801,1828.6822)" gradientUnits="userSpaceOnUse" xlink:href="#linearGradient3874"/><linearGradient id="linearGradient4164" x1="-468.054" x2="-488.945" y1="1419.169" y2="1436.22" gradientTransform="matrix(0.00452839,0.16125115,-0.15702835,-0.00431192,480.26372,2306.068)" gradientUnits="userSpaceOnUse" xlink:href="#linearGradient3856"/><linearGradient id="linearGradient4166" x1="-468.054" x2="-488.945" y1="1419.169" y2="1436.22" gradientTransform="matrix(-0.00452838,-0.16125113,0.15702835,0.00431191,54.363388,2112.0477)" gradientUnits="userSpaceOnUse" xlink:href="#linearGradient3856"/></defs><metadata id="metadata7"/><g id="layer2" style="display:none"><rect style="color:#000;fill:#e6e6e6;fill-opacity:1;fill-rule:nonzero;stroke:none;stroke-width:3.94959116;marker:none;visibility:visible;display:inline;overflow:visible;enable-background:accumulate" id="rect4413" width="50" height="200" x="0" y="0" rx="0" ry="0"/><rect id="rect5250" width="30" height="30" x="-45" y="155" rx="0" ry="0" style="color:#000;fill:#666;fill-opacity:1;fill-rule:nonzero;stroke:none;stroke-width:3.94959116;marker:none;visibility:visible;display:inline;overflow:visible;enable-background:accumulate"/></g><g id="layer1" transform="translate(0,-852.36218)" style="display:inline"><g id="layer1-4" transform="matrix(1.2823706,0,0,1.2926707,-0.93148265,-456.80514)"><g id="g5065" transform="translate(28.162416,-0.73285098)"><path style="fill:url(#linearGradient5084);fill-opacity:1;stroke:none" id="path2985" d="m 39.45631,18.058252 c 0,9.244067 -8.658726,16.737864 -19.339805,16.737864 -10.68108,0 -19.33980593,-7.493797 -19.33980593,-16.737864 0,-9.2440664 8.65872593,-16.7378632 19.33980593,-16.7378632 10.681079,0 19.339805,7.4937968 19.339805,16.7378632 z" transform="matrix(1.0080321,0,0,1.1554525,-28.218978,1011.9689)"/><path style="fill:url(#linearGradient3803);fill-opacity:1;stroke:url(#linearGradient5090);stroke-width:.70822662;stroke-miterlimit:4;stroke-dasharray:none" id="path4900" d="m 27.220179,21.678726 c 0,10.06074 -8.085533,18.216582 -18.0595421,18.216582 -9.97400947,0 -18.0595417,-8.155842 -18.0595417,-18.216582 0,-10.06074 8.08553223,-18.2165811 18.0595417,-18.2165811 9.9740091,0 18.0595421,8.1558411 18.0595421,18.2165811 z" transform="matrix(0.98550725,0,0,0.98850575,-16.984542,1011.4598)"/><rect id="rect5206" width="27.98" height="8.718" x="-1047.074" y="-12.367" transform="matrix(0,-1,1,0,0,0)" style="fill:url(#linearGradient5208);fill-opacity:1;fill-rule:nonzero;stroke:none"/><rect style="fill:url(#linearGradient3032);fill-opacity:1;fill-rule:nonzero;stroke:none" id="rect3030" width="27.98" height="8.718" x="-21.998" y="1028.725"/></g></g><g id="g4065" transform="matrix(0.70710678,0.70710679,-0.70710679,0.70710678,430.57905,-52.646006)" style="fill:#fff;fill-opacity:1;display:inline"><path id="path4055" d="m 486.50003,1032.3622 1.99998,0 0,15 -1.99998,0 z" style="fill:#fff;fill-opacity:1;stroke:none"/><path style="fill:#fff;fill-opacity:1;stroke:none" id="path4057" d="m 495.00007,1038.8621 -2e-5,2.0001 -15.00008,10e-5 2e-5,-2.0001 z"/></g><path style="fill:#000;fill-opacity:1;stroke:none;opacity:.15" id="path5260" d="m -37.5,1020.3622 5,0 5,5 -5,5 -5,0 5.5,-5 z"/><path id="path5264" d="m -37.5,1021.3622 5,0 5,5 -5,5 -5,0 5.5,-5 z" style="fill:#fff;fill-opacity:1;stroke:none"/><g id="g4018" transform="translate(14.142135,-45.255617)"><g id="g4103" transform="translate(-30.357143,2.5)"><g id="g4001" transform="translate(-21.265242,-5.1733147)"><g id="g3048" transform="matrix(1.2600419,0,0,1.2684455,-102.17626,-495.80008)"><g style="fill:#c6c452;fill-opacity:1" id="g3153" transform="matrix(0.31167021,0,0,0.31502263,16.137188,463.67577)"><g style="fill:#c6c452;fill-opacity:1" id="g3155" transform="translate(100.97139,11.843444)"><path style="fill:#c6c452;fill-opacity:1;fill-rule:nonzero;stroke:none" id="path3157" d="m -73.902729,-517.51257 c 0,9.03072 -11.017164,16.35158 -24.607525,16.35158 -13.590356,0 -24.607526,-7.32086 -24.607526,-16.35158 0,-9.03073 11.01717,-16.35158 24.607526,-16.35158 13.590361,0 24.607525,7.32085 24.607525,16.35158 z" transform="matrix(2.5869723,0,0,3.8261917,521.67039,4190.1737)"/><path style="fill:#c6c452;fill-opacity:1;stroke:url(#linearGradient4162);stroke-width:2.0194962;stroke-miterlimit:4;stroke-dasharray:none" id="path3159" d="m 323.15817,2210.299 a 56.550935,56.586584 0 0 1 -113.10187,0 56.550935,56.586584 0 1 1 113.10187,0 z"/><path style="fill:#c6c452;fill-opacity:1;stroke:url(#linearGradient4164);stroke-width:0;stroke-miterlimit:4;stroke-dasharray:none" id="path3161" d="m 278.74623,2194.4081 c 0,0 -0.7884,-0.9955 -16.15423,-16.6086 -14.88608,-12.0458 -23.18571,-8.7295 -29.47564,-3.4166 -5.18044,5.4943 -8.82872,14.2927 0.71377,28.3114 18.40495,18.0972 19.03594,18.3474 19.03594,18.3474 z"/><path id="path3163" d="m 255.881,2223.7077 c 0,0 0.78828,0.9954 16.15402,16.6084 14.88611,12.0458 23.18581,8.7296 29.47566,3.4167 5.18052,-5.4944 8.82871,-14.2927 -0.71357,-28.3113 -18.40494,-18.0974 -19.03608,-18.3476 -19.03608,-18.3476 z" style="fill:#c6c452;fill-opacity:1;stroke:url(#linearGradient4166);stroke-width:0;stroke-miterlimit:4;stroke-dasharray:none"/></g></g><path id="path3959" d="m 130.77766,1159.4387 c 0,15.4771 0,13.2252 0,19.7571" style="fill:#fff;fill-opacity:1;stroke:#fff;stroke-width:1.51306129;stroke-opacity:1"/></g></g><path style="fill:#fff;fill-opacity:1;stroke:none" id="path4080" d="m 40.066632,987.01589 c 0,0 -3.122146,-3.99749 -5.962421,-6.09163 -2.84027,-2.09415 -7.957057,-2.47575 -7.957057,-2.47575 0,0 0.563755,3.80669 3.404027,5.90083 4.490859,3.31115 10.515451,2.66655 10.515451,2.66655 z"/><path style="fill:#fff;fill-opacity:1;stroke:none" id="path4082" d="m 40.31917,970.09898 c 0,0 -2.921878,-3.749 -5.579965,-5.71296 -2.658082,-1.96398 -7.446656,-2.32186 -7.446656,-2.32186 0,0 0.527593,3.57006 3.185678,5.53403 4.202795,3.10532 9.840943,2.50079 9.840943,2.50079 z"/><path style="fill:#fff;fill-opacity:1;stroke:none" id="path4084" d="m 40.31917,979.0826 c 0,0 -3.001984,-3.99749 -5.732946,-6.09163 -2.730958,-2.09415 -7.650817,-2.47575 -7.650817,-2.47575 0,0 0.542058,3.80669 3.273018,5.90083 4.31802,3.31115 10.110745,2.66655 10.110745,2.66655 z"/><path id="path4130" d="m 42.47112,970.15128 c 0,0 2.921878,-3.749 5.579965,-5.71296 2.658082,-1.96398 7.446656,-2.32186 7.446656,-2.32186 0,0 -0.527593,3.57006 -3.185678,5.53403 -4.202795,3.10532 -9.840943,2.50079 -9.840943,2.50079 z" style="fill:#fff;fill-opacity:1;stroke:none"/><path id="path4132" d="m 42.628028,987.06819 c 0,0 3.122146,-3.99749 5.962421,-6.09163 2.84027,-2.09415 7.957057,-2.47575 7.957057,-2.47575 0,0 -0.563755,3.80669 -3.404027,5.90083 -4.490859,3.31115 -10.515451,2.66655 -10.515451,2.66655 z" style="fill:#fff;fill-opacity:1;stroke:none"/><path id="path4134" d="m 42.471122,979.0826 c 0,0 3.001984,-3.99749 5.732946,-6.09163 2.730958,-2.09415 7.650817,-2.47575 7.650817,-2.47575 0,0 -0.542058,3.80669 -3.273018,5.90083 -4.31802,3.31115 -10.110745,2.66655 -10.110745,2.66655 z" style="fill:#fff;fill-opacity:1;stroke:none"/></g></g><g id="g4136" transform="matrix(1.25,0,0,1.25,-0.22851565,-302.91201)"><path style="fill:#efde36;fill-opacity:0;fill-rule:nonzero;stroke:none" id="path4138" d="m 35.235954,19.460674 c 0,7.22314 -6.257952,13.078652 -13.977527,13.078652 -7.719576,0 -13.977528,-5.855512 -13.977528,-13.078652 0,-7.223139 6.257952,-13.0786511 13.977528,-13.0786511 7.719575,0 13.977527,5.8555121 13.977527,13.0786511 z" transform="translate(0,1012.3622)"/><path style="fill:url(#linearGradient4156);fill-opacity:1;fill-rule:nonzero;stroke:none" id="path4140" d="M 45,17 C 45,26.388841 39.403559,34 32.5,34 25.596441,34 20,26.388841 20,17 20,7.6111593 25.596441,0 32.5,0 39.403559,0 45,7.6111593 45,17 z" transform="matrix(1.6,0,0,1.1764706,-31.745759,1012.3622)"/><path style="fill:#f8f8f8;fill-opacity:1;fill-rule:nonzero;stroke:none" id="path4142" d="m 20,27.5 c 0,4.142136 -2.238576,7.5 -5,7.5 -2.761424,0 -5,-3.357864 -5,-7.5 0,-4.142136 2.238576,-7.5 5,-7.5 2.761424,0 5,3.357864 5,7.5 z" transform="matrix(2.4025345,0,0,1.296614,-15.593095,1002.3198)"/><path style="fill:#0babb4;fill-opacity:.77777782;fill-rule:nonzero;stroke:none" id="path4144" d="m 20.339251,24.491322 c 0,1.544545 -1.337473,2.796647 -2.987328,2.796647 -1.649855,0 -2.987328,-1.252102 -2.987328,-2.796647 0,-1.544546 1.337473,-2.796648 2.987328,-2.796648 1.649855,0 2.987328,1.252102 2.987328,2.796648 z" transform="matrix(1.1313102,0,0,1.2538995,-5.0642235,1004.9472)"/><path style="fill:#f6f8f8;fill-opacity:1;fill-rule:nonzero;stroke:url(#linearGradient4158);stroke-width:.62519461" id="path4146" d="m 25,15 c 0,2.761424 -2.238576,5 -5,5 -2.761424,0 -5,-2.238576 -5,-5 0,-2.761424 2.238576,-5 5,-5 2.761424,0 5,2.238576 5,5 z" transform="matrix(1.2669527,0,0,1.2923767,-5.1483729,1004.0571)"/><path style="fill:#1da0a6;fill-opacity:.68888891;fill-rule:nonzero;stroke:none" id="path4148" d="m 24.381113,1042.9252 c -0.516758,0.2662 -1.215761,0.5049 1.299658,-0.5797 0.04982,-0.021 -0.08864,0.056 -0.13042,0.087 -0.09709,0.071 -0.141409,0.1157 -0.227807,0.1948 -0.24931,0.2118 -0.439698,0.4593 -0.653546,0.6924 -0.194862,0.1992 -0.270923,0.4407 -0.364029,0.6763 -0.08271,0.2292 -0.174853,0.4555 -0.279873,0.6789 -0.105513,0.1758 -0.1369,0.3693 -0.206834,0.5538 -0.07285,0.1946 -0.0951,0.3968 -0.108788,0.5984 -0.01017,0.2015 -0.0091,0.4033 -0.0089,0.605 -0.01747,0.1723 0.01135,0.328 0.102166,0.4835 0.09551,0.1205 0.23203,0.2128 0.345536,0.3214 0.158607,0.1342 0.331277,0.2525 0.509306,0.3694 0.175238,0.088 0.350058,0.1764 0.552215,0.2195 0.193465,0.017 0.37828,0.062 0.568801,0.092 l -1.51216,0.8321 0,0 c -0.196473,-0.034 -0.394871,-0.061 -0.589214,-0.1015 -0.210533,-0.065 -0.403026,-0.161 -0.584135,-0.267 -0.186304,-0.1196 -0.35499,-0.2513 -0.525249,-0.385 -0.143406,-0.1084 -0.280853,-0.2219 -0.382072,-0.3581 -0.101547,-0.1751 -0.145871,-0.3512 -0.125495,-0.5451 -2.94e-4,-0.2039 -0.0013,-0.4078 0.0061,-0.6116 0.01049,-0.21 0.02749,-0.4205 0.08796,-0.6258 0.0097,-0.032 0.01942,-0.063 0.02913,-0.095 0.01282,-0.027 0.02937,-0.053 0.03845,-0.08 0.04309,-0.1318 0.05096,-0.2722 0.133045,-0.3958 0.12217,-0.22 0.225731,-0.4466 0.309898,-0.6774 0.09809,-0.2434 0.136462,-0.5033 0.334313,-0.7153 0.210738,-0.2374 0.420794,-0.4757 0.649941,-0.7025 0.576783,-0.5738 1.321451,-0.6344 2.218203,-0.9082 l -1.486186,0.6437 z"/><path style="fill:#0ba8ac;fill-opacity:.76444445;fill-rule:nonzero;stroke:none" id="path4150" d="m 29.619035,28.813412 c 0,2.948678 -2.248092,5.339053 -5.021253,5.339053 -2.773161,0 -5.021252,-2.390375 -5.021252,-5.339053 0,-2.948678 2.248091,-5.339054 5.021252,-5.339054 2.773161,0 5.021253,2.390376 5.021253,5.339054 z" transform="matrix(1.3544304,0,0,0.71428568,-10.370766,1017.925)"/><path style="fill:#1ba0aa;fill-opacity:.7288895;fill-rule:nonzero;stroke:none" id="path4152" d="m 15.044888,1040.4909 c 0.232791,0.058 0.452579,0.1341 0.67534,0.2209 0.23365,0.1 0.420198,0.2576 0.616919,0.4057 0.230777,0.1888 0.467287,0.3692 0.686868,0.5688 0.208062,0.2031 0.413543,0.41 0.629834,0.6057 0.148032,0.1409 0.287691,0.2915 0.447556,0.4214 0.165753,0.1703 0.320779,0.3485 0.465593,0.5341 0.208976,0.2854 0.431374,0.5635 0.610826,0.8656 0.12459,0.2453 0.302558,0.4619 0.444106,0.698 0.128966,0.235 0.24154,0.4743 0.314529,0.7289 0.06022,0.2384 0.06181,0.4833 0.107748,0.7237 0.05228,0.2335 0.0759,0.4706 0.0893,0.7082 0.01025,0.2329 0.0099,0.4661 0.01,0.6992 0.0012,0.2744 -0.0107,0.5485 -0.01005,0.8229 0.0067,0.1816 0.0095,0.3594 -0.03029,0.5376 l -1.664542,0.7192 0,0 c 0.07531,-0.1637 0.08266,-0.3255 0.07284,-0.5026 9.56e-4,-0.2715 -0.01034,-0.5426 -0.0085,-0.8141 1.51e-4,-0.231 0.04589,-0.3045 0.03874,-0.5354 -0.0096,-0.2308 -0.004,-0.5518 -0.05367,-0.7789 -0.05134,-0.5191 -0.05846,-0.5355 -0.341627,-1.5618 -0.290188,-0.6367 -0.417162,-0.7595 -0.54836,-1.004 -0.291605,-0.5537 -0.843883,-1.2343 -1.011135,-1.3779 -0.841884,-1.0891 -2.050193,-2.0628 -3.701276,-2.746 l 2.159192,0.061 z"/><path style="fill:none;stroke:url(#linearGradient4160);stroke-width:.80000001" id="path4154" d="m 32.924162,22.711636 c 0,8.986446 -7.14267,16.2714 -15.9536,16.2714 -8.81093,0 -15.9535999,-7.284954 -15.9535999,-16.2714 0,-8.986447 7.1426699,-16.2714009 15.9535999,-16.2714009 8.81093,0 15.9536,7.2849539 15.9536,16.2714009 z" transform="matrix(1.1434263,0,0,1.1328125,0.87110346,1006.6763)"/></g></g></svg>